<svg width="38" height="30" viewBox="0 0 38 30" fill="none" xmlns="http://www.w3.org/2000/svg">
<path d="M0.443829 0.116976C0.37573 0.185076 0.327087 0.506115 0.327087 0.885526C0.327087 1.80973 0.443829 1.87783 1.25129 1.40113C1.60152 1.19684 1.88364 0.98281 1.88364 0.914711C1.88364 0.778512 1.65016 0.583943 1.08591 0.262903C0.560571 -0.0386792 0.589756 -0.0289508 0.443829 0.116976Z" fill="#CDC72E"/>
<path d="M7.06893 0.32125C6.36848 0.749303 6.30038 0.82713 6.45603 1.0217C6.66033 1.26491 7.62345 1.77079 7.76938 1.71242C7.9834 1.63459 7.97367 0.146137 7.75965 0.058581C7.67209 0.0293956 7.60399 0.000210166 7.59426 0.0099386C7.58453 0.0099386 7.35105 0.155866 7.06893 0.32125Z" fill="#CDC72E"/>
<path d="M10.075 0.11697C10.0069 0.18507 9.95828 0.506109 9.95828 0.88552C9.95828 1.8 10.0653 1.8681 10.8728 1.41086C11.2716 1.1871 11.5148 0.992533 11.5148 0.88552C11.5148 0.788235 11.2716 0.583937 10.8825 0.360182C10.1626 -0.0484136 10.2307 -0.0386852 10.075 0.11697Z" fill="#CDC72E"/>
<path d="M16.5153 0.340708C16.1845 0.525549 15.8927 0.749304 15.8537 0.827132C15.8148 0.934145 15.9705 1.0898 16.4083 1.3622C17.2546 1.90699 17.3033 1.87781 17.3033 0.885503C17.3033 0.418536 17.2644 0.0488542 17.206 0.0293972C17.1574 0.0196688 16.8363 0.155867 16.5153 0.340708Z" fill="#CDC72E"/>
<path d="M19.7548 0.0683137C19.7159 0.0974991 19.6867 0.47691 19.6867 0.895234C19.6867 1.44976 19.7257 1.67351 19.8229 1.71243C19.9299 1.75134 20.7763 1.32329 21.1168 1.05089C21.3114 0.895234 21.146 0.690936 20.5137 0.340711C19.8618 -0.028971 19.8521 -0.028971 19.7548 0.0683137Z" fill="#CDC72E"/>
<path d="M26.1367 0.369911C25.767 0.583937 25.5238 0.788235 25.5238 0.88552C25.5238 0.992533 25.767 1.1871 26.1659 1.41086C26.9734 1.8681 27.0804 1.8 27.0804 0.88552C27.0804 0.31154 26.9734 -0.00949967 26.7983 0.000228882C26.7594 0.00995731 26.4675 0.165613 26.1367 0.369911Z" fill="#CDC72E"/>
<path d="M29.2498 0.0683093C29.0553 0.136409 29.0747 1.64432 29.2693 1.71242C29.4152 1.77079 30.3783 1.26491 30.5826 1.0217C30.641 0.943872 30.6702 0.836859 30.6313 0.788216C30.5826 0.70066 29.4347 -0.0095185 29.386 0.00993848C29.3763 0.00993848 29.3082 0.0391239 29.2498 0.0683093Z" fill="#CDC72E"/>
<path d="M35.9236 0.272632C35.3496 0.6034 35.155 0.778512 35.155 0.914711C35.155 0.98281 35.4372 1.19684 35.7874 1.40113C36.5948 1.87783 36.7116 1.80973 36.7116 0.885526C36.7116 0.311546 36.6046 -0.00949383 36.4295 0.00996304C36.3905 0.00996304 36.1668 0.126705 35.9236 0.272632Z" fill="#CDC72E"/>
<path d="M2.01011 3.13279C1.05672 3.68731 1.05672 3.82351 2.0393 4.42668C2.45762 4.67962 2.87595 4.86446 2.99269 4.845C3.18726 4.81581 3.19699 4.75744 3.19699 3.79432C3.19699 2.77284 3.19699 2.77284 2.95377 2.75338C2.81757 2.74365 2.40898 2.90903 2.01011 3.13279Z" fill="#CDC72E"/>
<path d="M5.16215 2.79228C5.0746 2.87011 5.0746 4.50449 5.15242 4.70879C5.24971 4.96173 5.55129 4.89363 6.2712 4.46558C7.34133 3.8235 7.34133 3.67757 6.24201 3.07441C5.61939 2.73391 5.29835 2.64635 5.16215 2.79228Z" fill="#CDC72E"/>
<path d="M11.6121 3.06468C10.5128 3.65811 10.5031 3.78458 11.437 4.37802C12.5752 5.10765 12.7795 5.0201 12.7795 3.78458C12.7795 3.36626 12.7504 2.96739 12.7212 2.87983C12.6336 2.63662 12.3029 2.69499 11.6121 3.06468Z" fill="#CDC72E"/>
<path d="M14.5988 2.7923C14.5599 2.82148 14.5307 3.25926 14.5307 3.74569C14.5307 5.05903 14.7058 5.13686 15.8927 4.35858C16.739 3.79433 16.7293 3.66786 15.7954 3.14252C15.1047 2.75338 14.7447 2.64637 14.5988 2.7923Z" fill="#CDC72E"/>
<path d="M21.6324 2.93821C20.7861 3.43437 20.5623 3.60948 20.5623 3.78459C20.5623 4.00835 21.9535 4.88391 22.2551 4.84499C22.4399 4.81581 22.4691 4.72825 22.5372 3.91106C22.6248 2.92849 22.5567 2.71446 22.1772 2.73392C22.0702 2.73392 21.8173 2.8312 21.6324 2.93821Z" fill="#CDC72E"/>
<path d="M24.3175 2.87985C24.2202 3.13279 24.2494 4.47532 24.3564 4.67962C24.5023 4.95202 24.6872 4.9131 25.4849 4.44614C26.1756 4.057 26.3897 3.81378 26.2535 3.59976C26.1464 3.43437 24.8039 2.7242 24.5899 2.7242C24.4732 2.7242 24.3467 2.79229 24.3175 2.87985Z" fill="#CDC72E"/>
<path d="M30.7091 3.12306C29.7363 3.65813 29.746 3.82351 30.7383 4.42668C31.1566 4.67962 31.5749 4.86446 31.6917 4.845C31.8863 4.81581 31.896 4.75744 31.896 3.79433C31.896 2.77284 31.896 2.77284 31.6528 2.75338C31.5166 2.74365 31.0885 2.90903 30.7091 3.12306Z" fill="#CDC72E"/>
<path d="M33.7639 2.79228C33.6763 2.8701 33.6763 4.50449 33.7541 4.70879C33.7833 4.79634 33.9001 4.86444 34.0071 4.86444C34.2406 4.86444 35.6025 4.03752 35.6706 3.84295C35.7485 3.64838 35.5636 3.47327 34.8437 3.0744C34.2211 2.73391 33.9001 2.64635 33.7639 2.79228Z" fill="#CDC72E"/>
<path d="M0.346546 5.53573C0.307632 5.64274 0.297904 6.12916 0.327089 6.62532C0.395189 7.83165 0.443831 7.86083 1.52369 7.21875C1.9712 6.93663 2.37007 6.6545 2.39925 6.57667C2.47708 6.37238 2.29224 6.18753 1.52369 5.74975C0.755142 5.31197 0.453559 5.2536 0.346546 5.53573Z" fill="#CDC72E"/>
<path d="M6.81598 5.79839C6.15444 6.19726 6.05716 6.28482 6.08634 6.49884C6.1058 6.69341 6.29064 6.84907 6.93272 7.22848C8.02231 7.87056 8.06122 7.8511 8.06122 6.45993C8.06122 5.39953 8.06122 5.39953 7.81801 5.38007C7.67208 5.36061 7.26349 5.53573 6.81598 5.79839Z" fill="#CDC72E"/>
<path d="M9.968 5.52599C9.91936 5.62327 9.8999 6.10969 9.92909 6.64476C9.99719 7.84136 10.0458 7.86082 11.1646 7.19928C12.2834 6.53775 12.2834 6.41128 11.223 5.79838C10.3863 5.31196 10.1139 5.25359 9.968 5.52599Z" fill="#CDC72E"/>
<path d="M16.2818 5.79838C15.6689 6.15833 15.5522 6.26534 15.5522 6.47937C15.5522 6.70312 15.6689 6.80041 16.3791 7.209C16.8363 7.47167 17.2352 7.6857 17.2741 7.6857C17.313 7.6857 17.4103 7.6176 17.4881 7.53004C17.6049 7.4133 17.6438 7.17009 17.6438 6.51828C17.6438 6.04159 17.6146 5.59408 17.5854 5.50652C17.4881 5.24385 17.0503 5.34114 16.2818 5.79838Z" fill="#CDC72E"/>
<path d="M19.8035 5.46761C19.6187 5.65245 19.6478 7.3452 19.8424 7.53004C19.9202 7.6176 20.0175 7.6857 20.0564 7.6857C20.0954 7.6857 20.4942 7.47167 20.9515 7.209C22.0897 6.5572 22.0994 6.43073 21.0487 5.8081C20.2316 5.33141 19.9981 5.27304 19.8035 5.46761Z" fill="#CDC72E"/>
<path d="M26.1173 5.77892C25.3584 6.22643 25.2222 6.37236 25.3001 6.58638C25.3487 6.72258 26.915 7.6857 27.0804 7.6857C27.129 7.6857 27.236 7.6176 27.3139 7.53004C27.4306 7.4133 27.4695 7.17009 27.4695 6.47937C27.4695 5.17575 27.2944 5.0882 26.1173 5.77892Z" fill="#CDC72E"/>
<path d="M29.0942 5.41896C29.0553 5.44815 29.0261 5.92484 29.0261 6.46964C29.0261 7.75379 29.1039 7.84135 29.8627 7.43276C30.7383 6.96579 31.1177 6.66421 31.1177 6.46964C31.1177 6.33344 30.8842 6.13887 30.3394 5.81783C29.6098 5.38005 29.2401 5.26331 29.0942 5.41896Z" fill="#CDC72E"/>
<path d="M35.4566 5.7692C34.2989 6.43073 34.2989 6.51829 35.5636 7.25765C36.624 7.88028 36.663 7.85109 36.663 6.45992C36.663 5.39952 36.663 5.39952 36.4197 5.38006C36.2738 5.3606 35.8749 5.52599 35.4566 5.7692Z" fill="#CDC72E"/>
<path d="M2.30197 8.19161C0.852425 8.96016 0.657856 9.13527 0.891339 9.49522C0.930253 9.56332 1.41668 9.88436 1.96147 10.2151C2.82731 10.7307 3.00242 10.8086 3.18726 10.721C3.40129 10.6237 3.42074 10.5362 3.47911 9.49522C3.59585 7.71491 3.46938 7.56898 2.30197 8.19161Z" fill="#CDC72E"/>
<path d="M12.2931 7.90947C11.1257 8.51264 10.3572 8.9796 10.3085 9.10607C10.2015 9.3882 10.4447 9.63141 11.437 10.2151C11.9818 10.5362 12.4682 10.7988 12.5071 10.7988C12.5461 10.7988 12.6725 10.7113 12.7795 10.6043C12.9644 10.4194 12.9741 10.3027 12.9547 9.22282C12.9255 8.17214 12.906 8.03594 12.7309 7.9192C12.5655 7.81219 12.4877 7.81219 12.2931 7.90947Z" fill="#CDC72E"/>
<path d="M14.4528 7.93866C14.2485 8.07486 14.2388 8.16241 14.2388 9.28119C14.2388 10.3124 14.2583 10.4972 14.4139 10.6334C14.5112 10.7307 14.6377 10.7988 14.6863 10.7988C14.735 10.7988 15.2311 10.5264 15.7954 10.1859C16.6125 9.69951 16.8266 9.5244 16.846 9.32983C16.8849 9.01852 16.739 8.90178 15.5911 8.28888C14.7252 7.82192 14.6474 7.80246 14.4528 7.93866Z" fill="#CDC72E"/>
<path d="M21.4865 8.32777C20.3094 8.96985 20.251 9.01849 20.2899 9.32007C20.3094 9.50491 20.5429 9.68975 21.3406 10.1762C22.8096 11.0809 22.8291 11.0712 22.9069 9.41735C22.9361 8.75582 22.9264 8.15265 22.8874 8.0651C22.7221 7.74406 22.4399 7.80243 21.4865 8.32777Z" fill="#CDC72E"/>
<path d="M24.2689 7.93865C24.084 8.07485 24.0646 8.17214 24.0646 9.252C24.0646 10.2929 24.084 10.4291 24.2689 10.614C24.5121 10.8572 24.6191 10.828 25.7184 10.147C26.6134 9.60222 26.8372 9.37847 26.7302 9.10607C26.6815 8.9796 25.1736 8.08458 24.6386 7.86083C24.551 7.83164 24.3856 7.86083 24.2689 7.93865Z" fill="#CDC72E"/>
<path d="M31.5555 7.90947C30.3881 8.51264 29.6195 8.9796 29.5709 9.10607C29.5417 9.19363 29.5611 9.33956 29.6098 9.44657C29.7168 9.64114 31.6041 10.7988 31.8181 10.7988C31.8862 10.7988 32.0127 10.6918 32.0905 10.5653C32.2073 10.3805 32.2365 10.0984 32.217 9.19363C32.1878 8.17214 32.1684 8.03594 31.9933 7.9192C31.8279 7.81219 31.7501 7.81219 31.5555 7.90947Z" fill="#CDC72E"/>
<path d="M33.6277 7.89001C33.4136 7.96784 33.4039 8.01648 33.4039 9.23254C33.4039 10.2443 33.4331 10.5264 33.5596 10.6432C33.6374 10.7307 33.7639 10.7988 33.8222 10.7988C33.8903 10.7988 34.3962 10.5264 34.9605 10.1859C35.7776 9.69951 35.9917 9.5244 36.0111 9.32983C36.05 9.01852 35.9041 8.90178 34.7659 8.29861C34.0363 7.90947 33.793 7.82192 33.6277 7.89001Z" fill="#CDC72E"/>
<path d="M4.80218 8.06512C4.74381 8.18187 4.72435 8.68775 4.77299 9.43684C4.83136 10.5362 4.85082 10.6334 5.05512 10.721C5.23996 10.8086 5.4248 10.7307 6.30036 10.2054C7.30239 9.60222 7.55533 9.32982 7.38995 9.05743C7.26348 8.86286 5.40534 7.88028 5.1524 7.88028C5.00647 7.88028 4.86055 7.95811 4.80218 8.06512Z" fill="#CDC72E"/>
<path d="M7.67208 10.5653C6.77706 11.0226 5.97932 11.4992 5.87231 11.616C5.59991 11.9468 5.79448 12.19 6.86462 12.8223C7.89583 13.4352 7.91529 13.4449 8.1585 13.2893C8.40171 13.1239 8.41144 13.1142 8.38226 11.8981C8.35307 10.7988 8.33362 10.6626 8.1585 10.5459C7.99312 10.4388 7.91529 10.4388 7.67208 10.5653Z" fill="#CDC72E"/>
<path d="M28.8412 10.5653C28.6564 10.7015 28.6369 10.7988 28.6369 11.9176C28.6369 13.1044 28.6467 13.1336 28.8801 13.2893C29.1234 13.4449 29.1525 13.4352 30.174 12.8223C31.6333 11.9565 31.6333 11.8008 30.2032 11.0128C29.1039 10.4097 29.0844 10.3999 28.8412 10.5653Z" fill="#CDC72E"/>
<path d="M0.21036 10.614C0.0547047 10.7015 0.0352478 10.8767 0.0352478 11.9468C0.0352478 13.6979 0.122804 13.7466 1.66963 12.8321C2.56465 12.3067 2.66194 12.2192 2.66194 11.9662C2.66194 11.7133 2.57438 11.6355 1.67936 11.1296C0.570314 10.507 0.443844 10.4681 0.21036 10.614Z" fill="#CDC72E"/>
<path d="M9.51076 10.7502C9.37456 10.9642 9.3551 11.1588 9.41347 12.0927C9.45239 12.6861 9.53021 13.2309 9.58858 13.299C9.77343 13.5228 10.0945 13.4255 11.0187 12.8613C12.0304 12.2484 12.2055 12.0635 12.0402 11.7911C11.9137 11.5868 10.075 10.5167 9.84152 10.5167C9.74424 10.507 9.59831 10.614 9.51076 10.7502Z" fill="#CDC72E"/>
<path d="M16.3304 11.0031C15.27 11.6063 15.1144 11.7425 15.1144 12.0246C15.1144 12.2095 15.3089 12.3651 16.1164 12.8321C17.6535 13.7465 17.7411 13.6979 17.7411 11.9662C17.7411 10.2638 17.6924 10.2346 16.3304 11.0031Z" fill="#CDC72E"/>
<path d="M19.4144 10.6237C19.249 10.7891 19.249 13.1434 19.4144 13.3088C19.6186 13.5131 19.9105 13.4255 20.9028 12.8515C21.9048 12.2678 22.0897 12.0343 21.8173 11.7133C21.6616 11.5187 19.8619 10.507 19.677 10.507C19.5992 10.507 19.4825 10.5556 19.4144 10.6237Z" fill="#CDC72E"/>
<path d="M26.0686 11.0712C25.0179 11.6744 24.8331 11.869 24.9985 12.1316C25.1444 12.3748 26.8858 13.4158 27.1388 13.4255C27.4792 13.4255 27.5473 13.2309 27.6252 12.0927C27.6835 11.1588 27.6641 10.9642 27.5279 10.7502C27.4403 10.614 27.2944 10.507 27.1971 10.5167C27.1096 10.5167 26.594 10.7696 26.0686 11.0712Z" fill="#CDC72E"/>
<path d="M35.4274 11.1004C34.4643 11.6355 34.3767 11.7036 34.3767 11.9662C34.3767 12.2192 34.474 12.3067 35.3788 12.8321C36.9256 13.7466 37.0034 13.6979 37.0034 11.9468C37.0034 10.8183 36.984 10.7015 36.8186 10.6043C36.7116 10.5556 36.5948 10.507 36.5462 10.507C36.5073 10.507 36.0014 10.7696 35.4274 11.1004Z" fill="#CDC72E"/>
<path d="M1.69881 13.6006C-0.0620385 14.6902 -0.0620385 14.8167 1.76691 15.8284C3.08026 16.5678 3.28456 16.6262 3.57641 16.4121C3.74179 16.2954 3.75152 16.13 3.74179 14.7291C3.71261 12.4916 3.6056 12.4235 1.69881 13.6006Z" fill="#CDC72E"/>
<path d="M33.472 13.0169C33.3455 13.1531 33.3164 13.4644 33.2969 14.7291C33.2872 16.13 33.2969 16.2954 33.4623 16.4121C33.7639 16.6262 33.9973 16.5581 35.2912 15.8284C36.5559 15.1085 36.7505 14.9237 36.6046 14.5345C36.517 14.2719 34.1725 12.8418 33.8514 12.8418C33.725 12.8418 33.5596 12.9196 33.472 13.0169Z" fill="#CDC72E"/>
<path d="M4.81191 13.1239C4.66599 13.2698 4.62707 13.5131 4.58816 14.7486C4.52979 16.237 4.5687 16.4608 4.9092 16.6359C5.06485 16.7234 5.32752 16.6262 6.46575 16.0327C7.94448 15.2642 8.14878 15.0599 7.87638 14.6416C7.70127 14.3789 5.41508 12.9391 5.17187 12.9391C5.07458 12.9391 4.91893 13.0169 4.81191 13.1239Z" fill="#CDC72E"/>
<path d="M12.1375 13.192C9.20919 14.7389 9.19946 14.768 11.2327 15.9938C12.5558 16.7818 12.8476 16.8597 13.0617 16.4608C13.1103 16.3635 13.1687 15.6144 13.1784 14.7875C13.1979 13.338 13.1979 13.299 12.9838 13.1239C12.7017 12.8904 12.7017 12.8904 12.1375 13.192Z" fill="#CDC72E"/>
<path d="M14.2388 13.0072C13.8983 13.1239 13.8497 13.3477 13.8497 14.7972C13.8497 16.0911 13.8691 16.2468 14.054 16.4802C14.161 16.6164 14.3264 16.7332 14.4139 16.7332C14.6279 16.7332 17.0601 15.2739 17.1865 15.0696C17.2352 14.9821 17.2546 14.7972 17.2157 14.661C17.1671 14.4567 16.9044 14.2719 15.9121 13.7271C14.5209 12.9683 14.4431 12.9294 14.2388 13.0072Z" fill="#CDC72E"/>
<path d="M21.2238 13.6784C20.144 14.2622 19.8716 14.4567 19.8229 14.661C19.784 14.7972 19.8035 14.9821 19.8521 15.0696C19.9786 15.2739 22.4107 16.7332 22.6247 16.7332C22.7123 16.7332 22.8777 16.6164 22.9847 16.4802C23.1695 16.2468 23.189 16.0911 23.189 14.7972C23.189 12.6764 23.1209 12.6375 21.2238 13.6784Z" fill="#CDC72E"/>
<path d="M24.0548 13.1239C23.8311 13.299 23.8311 13.338 23.8603 14.7972C23.87 15.6241 23.9284 16.3732 23.977 16.4608C24.191 16.8597 24.4829 16.7818 25.806 15.9938C27.1679 15.1766 27.3917 14.9334 27.1388 14.5443C27.0026 14.34 24.5899 12.9391 24.3759 12.9391C24.3272 12.9391 24.1813 13.0266 24.0548 13.1239Z" fill="#CDC72E"/>
<path d="M30.5048 13.6784C28.5786 14.875 28.5786 15.0015 30.5729 16.0327C31.7111 16.6262 31.9738 16.7234 32.1295 16.6359C32.47 16.4608 32.5089 16.237 32.4505 14.7486C32.4116 13.5131 32.3727 13.2698 32.2268 13.1239C32.1197 13.0169 31.9641 12.9391 31.8668 12.9391C31.7792 12.9391 31.1566 13.2698 30.5048 13.6784Z" fill="#CDC72E"/>
<path d="M0.210351 15.9257C0.0936098 16.0619 0.0449674 16.4316 0.015782 17.5212C-0.0425888 19.1458 0.0449674 19.4474 0.550848 19.4572C0.735689 19.4572 3.15808 18.1244 3.26509 17.959C3.30401 17.9006 3.34292 17.7352 3.34292 17.5893C3.34292 17.2877 3.26509 17.2293 1.80582 16.3538C0.755146 15.7311 0.453563 15.6533 0.210351 15.9257Z" fill="#CDC72E"/>
<path d="M6.52412 16.4997C5.24969 17.2682 5.02593 17.5115 5.25941 17.8909C5.37616 18.0854 7.80827 19.4572 8.04176 19.4572C8.12931 19.4572 8.2947 19.3696 8.40171 19.2626C8.57682 19.0875 8.59628 18.9415 8.59628 17.6768C8.59628 15.4393 8.44062 15.3517 6.52412 16.4997Z" fill="#CDC72E"/>
<path d="M9.63725 15.9354C9.50105 16.0814 9.47186 16.3732 9.46213 17.6574C9.45241 19.0388 9.47186 19.2139 9.62752 19.3307C9.91937 19.5447 10.1139 19.4863 11.4273 18.747C13.3049 17.7158 13.3049 17.5698 11.4176 16.4511C10.1918 15.7311 9.89992 15.6436 9.63725 15.9354Z" fill="#CDC72E"/>
<path d="M16.058 16.4997C14.7836 17.2682 14.5598 17.5115 14.7933 17.8909C14.9295 18.1049 17.3519 19.4572 17.6146 19.4572C18.0426 19.4572 18.1302 19.1458 18.1302 17.6087C18.1302 15.4296 17.994 15.3517 16.058 16.4997Z" fill="#CDC72E"/>
<path d="M19.0641 15.9744C18.9377 16.1495 18.9085 16.4802 18.9085 17.6087C18.9085 19.1458 18.996 19.4572 19.4241 19.4572C19.6868 19.4572 22.1091 18.1049 22.2453 17.8909C22.4788 17.5115 22.2551 17.2682 20.9709 16.4997C19.6478 15.7117 19.3073 15.6241 19.0641 15.9744Z" fill="#CDC72E"/>
<path d="M25.6211 16.4511C23.7435 17.5698 23.7435 17.6963 25.5725 18.7275C26.9053 19.4766 27.0512 19.5253 27.382 19.3599C27.5571 19.2626 27.5668 19.1361 27.5668 17.6671C27.5668 16.2565 27.5474 16.0619 27.3917 15.9257C27.0901 15.6533 26.7885 15.7409 25.6211 16.4511Z" fill="#CDC72E"/>
<path d="M28.6272 15.9257C28.5299 16.0327 28.4813 16.4802 28.4618 17.5309C28.4229 19.1167 28.5105 19.4572 28.958 19.4572C29.2206 19.4572 31.643 18.1146 31.7792 17.8909C32.0127 17.5115 31.789 17.2585 30.5145 16.4997C29.2498 15.7409 28.8704 15.6241 28.6272 15.9257Z" fill="#CDC72E"/>
<path d="M35.0091 16.4802C33.793 17.2099 33.5401 17.4823 33.7055 17.8422C33.8125 18.0757 36.2154 19.4572 36.4976 19.4572C36.5948 19.4572 36.7602 19.3988 36.8672 19.321C37.0424 19.1945 37.0521 19.0777 37.0229 17.6379C36.9743 15.4198 36.8672 15.3615 35.0091 16.4802Z" fill="#CDC72E"/>
<path d="M1.93227 19.1069L0.667572 19.8171V20.1868C0.667572 20.5662 0.667572 20.5662 1.88363 21.3153C2.57435 21.7433 3.21643 22.0741 3.36236 22.0741C3.83905 22.0936 3.89742 21.9184 3.97525 20.3327C4.08227 18.066 3.94607 17.9784 1.93227 19.1069Z" fill="#CDC72E"/>
<path d="M4.57844 18.5622C4.44224 18.7178 4.41306 18.9708 4.41306 20.1479C4.41306 22.3854 4.55898 22.4827 6.38794 21.3931C7.66237 20.6441 7.81802 20.5079 7.81802 20.1868C7.81802 19.895 7.62345 19.7393 6.31984 19.0194C5.09405 18.3481 4.83138 18.28 4.57844 18.5622Z" fill="#CDC72E"/>
<path d="M30.787 18.9707C29.4542 19.7198 29.2207 19.8949 29.2207 20.1868C29.2207 20.4981 29.3082 20.5662 30.6508 21.3834C32.47 22.4924 32.6256 22.3951 32.6256 20.1284C32.6256 18.8734 32.6062 18.6886 32.4505 18.5524C32.1684 18.2897 31.8668 18.3676 30.787 18.9707Z" fill="#CDC72E"/>
<path d="M33.1704 18.601C33.005 18.8345 32.9856 19.535 33.0926 21.0429C33.1996 22.366 33.4233 22.3951 35.155 21.3153C36.3613 20.5662 36.3711 20.5565 36.3711 20.1868V19.8171L35.1064 19.1069C33.7541 18.3481 33.4136 18.2508 33.1704 18.601Z" fill="#CDC72E"/>
<path d="M11.5537 19.1458C10.9019 19.5058 10.2988 19.856 10.2112 19.9339C10.0069 20.109 10.0069 20.5565 10.2307 20.751C10.4836 20.9748 12.7017 22.2784 12.8379 22.2784C12.8963 22.2784 13.0422 22.2006 13.1492 22.1033C13.334 21.9574 13.3632 21.7823 13.4119 20.43C13.48 18.9805 13.4702 18.9124 13.2757 18.6983C13.1589 18.5816 12.9936 18.4843 12.8963 18.4843C12.8087 18.4843 12.1958 18.7859 11.5537 19.1458Z" fill="#CDC72E"/>
<path d="M13.9761 18.6302C13.7621 18.7859 13.7524 18.8443 13.7524 20.2938C13.7524 21.7628 13.7621 21.8114 13.9956 22.0352C14.1221 22.1714 14.2777 22.2784 14.3458 22.2784C14.5793 22.2784 16.9822 20.7608 17.0892 20.5467C17.2741 20.1479 17.0503 19.9338 15.7662 19.2334C14.3361 18.4551 14.2583 18.4259 13.9761 18.6302Z" fill="#CDC72E"/>
<path d="M21.36 19.1945C19.4046 20.2549 19.4046 20.3619 21.2822 21.4904C22.0021 21.9282 22.6345 22.2784 22.6929 22.2784C22.7609 22.2784 22.9166 22.1714 23.0431 22.0352C23.2766 21.8114 23.2863 21.7628 23.2863 20.2938C23.2863 18.8443 23.2766 18.7859 23.0723 18.64C22.9555 18.5524 22.8096 18.4843 22.7512 18.4843C22.6929 18.4843 22.0702 18.8053 21.36 19.1945Z" fill="#CDC72E"/>
<path d="M23.763 18.6886C23.5587 18.8929 23.5587 18.9513 23.617 20.4203C23.6754 21.7823 23.7046 21.9574 23.8894 22.1033C23.9965 22.2006 24.1424 22.2784 24.2008 22.2784C24.337 22.2784 26.555 20.9748 26.8177 20.751C26.9053 20.6635 26.9831 20.4786 26.9831 20.3327C26.9831 20.1868 26.9053 20.0019 26.8177 19.9241C26.5259 19.6809 24.298 18.4843 24.1229 18.4843C24.0354 18.4843 23.87 18.5816 23.763 18.6886Z" fill="#CDC72E"/>
<path d="M16.204 21.5293C14.3653 22.6092 14.3653 22.7259 16.2137 23.7766C18.1691 24.8954 18.2275 24.8662 18.2275 22.6384C18.2275 20.4689 18.1107 20.4106 16.204 21.5293Z" fill="#CDC72E"/>
<path d="M18.9766 20.9943C18.8404 21.1499 18.8112 21.4126 18.8112 22.687C18.8112 24.0198 18.8306 24.2144 18.9863 24.3506C19.0836 24.4479 19.249 24.516 19.3463 24.516C19.4533 24.516 20.1148 24.1852 20.825 23.7766C22.1578 23.008 22.3524 22.8135 22.1383 22.4049C22.0021 22.1617 19.6576 20.8191 19.3657 20.8191C19.2392 20.8191 19.0641 20.897 18.9766 20.9943Z" fill="#CDC72E"/>
<path d="M6.55332 21.5974C4.72437 22.6092 4.72437 22.7746 6.54359 23.8544C7.23432 24.2728 7.87639 24.6133 7.98341 24.6133C8.46983 24.6035 8.58657 24.1755 8.5963 22.4146C8.5963 21.3931 8.57685 21.218 8.42119 21.0818C8.11961 20.8094 7.82775 20.897 6.55332 21.5974Z" fill="#CDC72E"/>
<path d="M9.00489 21.0332C8.92707 21.111 8.88815 21.6169 8.88815 22.6676C8.88815 25.0997 8.95625 25.1191 11.6802 23.3777C12.2737 22.9983 12.4293 22.6578 12.1375 22.366C11.8262 22.0644 9.6567 20.9164 9.38431 20.9164C9.23838 20.9164 9.07299 20.9651 9.00489 21.0332Z" fill="#CDC72E"/>
<path d="M26.1659 21.5877C24.3175 22.6189 24.3175 22.7648 26.1562 23.8739C28.0338 25.0024 28.1505 24.944 28.1505 22.7357C28.1505 21.9282 28.1019 21.2083 28.0533 21.1013C27.8684 20.7705 27.4015 20.8872 26.1659 21.5877Z" fill="#CDC72E"/>
<path d="M28.6078 21.0915C28.4716 21.2375 28.4424 21.4807 28.4424 22.4341C28.4521 24.1755 28.5689 24.6035 29.0553 24.6133C29.1623 24.6133 29.8044 24.2728 30.4951 23.8544C31.7792 23.0956 31.9446 22.9205 31.7987 22.4827C31.7306 22.2492 29.3374 20.9164 28.9969 20.9164C28.8704 20.9164 28.6953 20.9943 28.6078 21.0915Z" fill="#CDC72E"/>
<path d="M12.1375 23.6988C9.20919 25.2553 9.18973 25.2845 11.2133 26.5006C12.5363 27.2886 12.8476 27.3761 13.0519 26.9676C13.1006 26.88 13.1687 26.1504 13.1881 25.3526C13.2368 23.9323 13.2368 23.8934 13.013 23.6696C12.7309 23.3875 12.7212 23.3875 12.1375 23.6988Z" fill="#CDC72E"/>
<path d="M13.9956 23.6793C13.7524 23.9225 13.7524 23.9517 13.7524 25.4304C13.7524 26.88 13.7621 26.9383 13.9664 27.0843C14.0831 27.1718 14.2388 27.2399 14.3166 27.2399C14.5501 27.2399 16.9628 25.8585 17.0698 25.6639C17.2935 25.2553 17.1087 25.0413 15.8537 24.2922C14.3458 23.3777 14.3069 23.368 13.9956 23.6793Z" fill="#CDC72E"/>
<path d="M22.3426 23.6112C22.1967 23.689 21.6033 24.0393 21.0293 24.3895C19.9397 25.051 19.7548 25.2748 19.9689 25.6639C20.0662 25.8488 22.4983 27.2399 22.7318 27.2399C22.7999 27.2399 22.9555 27.1718 23.0723 27.0843C23.2765 26.9481 23.2863 26.88 23.2863 25.4596C23.2863 24.3117 23.2571 23.9322 23.1404 23.7669C22.9458 23.4945 22.6734 23.4361 22.3426 23.6112Z" fill="#CDC72E"/>
<path d="M24.191 23.5529C24.0743 23.5918 23.9381 23.7085 23.8894 23.7961C23.7727 24.0004 23.8505 26.7243 23.9867 26.9676C24.191 27.3664 24.4926 27.2886 25.8546 26.4714C26.6426 25.9947 27.1874 25.5958 27.2263 25.4791C27.3333 25.1483 27.0512 24.8759 25.8546 24.2144C24.4926 23.4556 24.4634 23.4459 24.191 23.5529Z" fill="#CDC72E"/>
<path d="M17.4395 26.2087C16.8071 26.5395 15.2408 27.4929 15.0463 27.668C14.803 27.882 14.7544 28.1933 14.949 28.4268C15.0073 28.5144 15.6689 28.923 16.3985 29.3316C17.8189 30.1196 17.994 30.1585 18.2858 29.7207C18.4123 29.5261 18.422 29.2537 18.3637 27.9209C18.3053 26.4908 18.2761 26.3449 18.0913 26.2184C17.8481 26.0433 17.7605 26.0433 17.4395 26.2087Z" fill="#CDC72E"/>
<path d="M18.9474 26.2087C18.7626 26.3449 18.7431 26.4908 18.675 27.9307C18.6166 29.244 18.6361 29.5359 18.7528 29.7207C19.0447 30.1585 19.2198 30.1196 20.6402 29.3316C21.3698 28.923 22.0313 28.5144 22.0994 28.4268C22.2843 28.1933 22.2356 27.882 22.0021 27.668C21.6422 27.347 19.4144 26.0725 19.2295 26.0725C19.1809 26.0725 19.0544 26.1406 18.9474 26.2087Z" fill="#CDC72E"/>
</svg>
