<svg width="312" height="201" viewBox="0 0 312 201" fill="none" xmlns="http://www.w3.org/2000/svg">
<ellipse cx="155" cy="146" rx="139" ry="54" fill="url(#paint0_linear_48_94)"/>
<path d="M16 139.52C16 139.52 142.953 144.56 155 144.56C167.047 144.56 294 139.52 294 139.52V147.44L155 152.48L16 147.44V139.52Z" fill="#B1A64A"/>
<ellipse cx="155" cy="146" rx="46.3333" ry="18" fill="#B1A64A"/>
<ellipse cx="155" cy="146" rx="27.8" ry="10.8" fill="#302D15"/>
<path d="M0 0H312L293.47 136.53C293.47 136.53 304.082 164.568 253 183C201.918 201.432 154.247 200.017 154.247 200.017C154.247 200.017 95.0634 199.518 55.5 184.5C15.9366 169.482 12.0255 145.214 16.0257 136.53L0 0Z" fill="url(#paint1_linear_48_94)" fill-opacity="0.4"/>
<defs>
<linearGradient id="paint0_linear_48_94" x1="155" y1="92" x2="155" y2="200" gradientUnits="userSpaceOnUse">
<stop stop-color="#C2B33C"/>
<stop offset="1" stop-opacity="0.6"/>
</linearGradient>
<linearGradient id="paint1_linear_48_94" x1="156" y1="0" x2="156" y2="201" gradientUnits="userSpaceOnUse">
<stop stop-color="#FAF7A7" stop-opacity="0"/>
<stop offset="1" stop-color="#FAF7A7"/>
</linearGradient>
</defs>
</svg>
