<?xml version="1.0" standalone="no"?>
<!DOCTYPE svg PUBLIC "-//W3C//DTD SVG 20010904//EN"
 "http://www.w3.org/TR/2001/REC-SVG-20010904/DTD/svg10.dtd">
<svg version="1.0" xmlns="http://www.w3.org/2000/svg"
 width="1216.000000pt" height="1216.000000pt" viewBox="0 0 1216.000000 1216.000000"
 preserveAspectRatio="xMidYMid meet">
<metadata>
Created by potrace 1.14, written by Peter Selinger 2001-2017
</metadata>
<g transform="translate(0.000000,1216.000000) scale(0.100000,-0.100000)"
fill="#000000" stroke="none">
<path d="M162 10860 c-43 -35 -56 -101 -55 -275 1 -205 16 -245 90 -245 31 0
74 19 183 82 124 71 124 72 133 86 4 6 12 12 18 12 18 0 69 53 69 72 0 25 -60
84 -130 130 -71 45 -179 108 -187 108 -4 0 -14 6 -22 14 -9 7 -30 18 -46 23
-25 9 -35 7 -53 -7z"/>
<path d="M2288 10792 c-79 -47 -145 -88 -148 -91 -3 -3 -22 -19 -42 -34 -74
-55 -69 -91 22 -159 58 -44 188 -118 206 -118 8 0 14 -4 14 -9 0 -5 20 -15 45
-22 25 -7 45 -16 45 -20 0 -5 38 -6 63 -1 12 3 26 48 34 105 7 52 7 268 0 297
-3 8 -8 34 -12 57 -4 23 -15 48 -24 56 -38 33 -57 27 -203 -61z"/>
<path d="M3244 10860 c-30 -31 -39 -44 -42 -65 -1 -11 -4 -36 -7 -55 -6 -38
-7 -276 -1 -300 9 -45 21 -76 30 -85 10 -10 63 -12 96 -3 72 19 293 151 338
202 26 30 29 38 20 58 -6 13 -31 39 -54 58 -39 31 -210 140 -219 140 -2 0 -27
13 -55 30 -27 16 -50 27 -50 24 0 -2 -8 0 -19 5 -14 8 -23 6 -37 -9z"/>
<path d="M6338 10873 c-26 -6 -32 -58 -33 -258 0 -250 9 -290 64 -280 69 12
394 195 407 230 13 32 -8 67 -66 111 -32 26 -69 52 -82 59 -13 6 -61 34 -108
62 -97 56 -157 81 -182 76z"/>
<path d="M8530 10857 c-25 -12 -48 -26 -52 -32 -5 -7 -8 -7 -8 0 0 7 -3 7 -8
0 -4 -6 -24 -19 -44 -30 -21 -11 -38 -23 -38 -28 0 -4 -4 -5 -10 -2 -5 3 -10
1 -10 -4 0 -6 -6 -11 -13 -11 -14 0 -28 -10 -118 -83 -59 -48 -67 -63 -49 -96
10 -19 114 -101 128 -101 4 0 17 -8 28 -17 31 -29 189 -103 231 -109 76 -10
101 56 97 256 -4 156 -17 221 -52 263 -19 22 -28 21 -82 -6z"/>
<path d="M9378 10868 c-45 -16 -61 -90 -59 -273 1 -195 19 -260 70 -261 17 0
31 3 31 6 0 4 6 7 13 7 23 0 188 84 257 131 74 51 105 81 116 114 9 29 -37 70
-174 155 -178 110 -223 132 -254 121z"/>
<path d="M11619 10861 c-65 -32 -154 -84 -160 -94 -3 -5 -10 -9 -15 -9 -17 -1
-111 -66 -152 -105 -49 -47 -52 -65 -14 -100 78 -75 367 -235 387 -215 6 7 10
8 36 11 5 0 17 18 26 39 17 39 24 260 11 352 -7 51 -36 130 -48 130 -5 0 -14
2 -22 5 -7 2 -29 -4 -49 -14z"/>
<path d="M5470 10861 c-8 -6 -18 -7 -22 -5 -4 3 -8 0 -8 -5 0 -6 -9 -11 -20
-11 -11 0 -20 -4 -20 -10 0 -5 -6 -10 -14 -10 -8 0 -47 -19 -88 -41 -127 -72
-228 -150 -228 -177 0 -26 140 -149 154 -135 3 4 6 2 6 -4 0 -6 14 -16 30 -23
17 -7 30 -15 30 -19 0 -4 17 -15 38 -26 20 -10 43 -24 51 -29 7 -6 20 -11 29
-12 8 -2 18 -6 21 -11 3 -5 20 -10 37 -11 27 -3 33 1 50 35 15 33 18 63 18
213 0 169 -6 260 -19 280 -8 12 -25 13 -45 1z"/>
<path d="M1665 9994 c-11 -8 -21 -33 -26 -61 -7 -48 -5 -505 3 -533 14 -50 22
-60 51 -68 53 -15 115 8 306 114 19 10 40 23 45 27 6 4 34 22 61 40 123 78
164 129 150 184 -6 27 -66 93 -84 93 -5 0 -11 4 -13 8 -8 21 -272 159 -360
189 -71 25 -106 27 -133 7z"/>
<path d="M3925 9993 c-22 -7 -49 -17 -60 -22 -11 -5 -35 -15 -52 -23 -18 -7
-33 -17 -33 -21 0 -5 -3 -6 -7 -4 -5 3 -26 -6 -48 -19 -22 -13 -50 -28 -61
-33 -28 -12 -153 -94 -180 -118 -24 -22 -41 -52 -38 -70 1 -7 2 -19 3 -27 2
-27 61 -78 176 -153 44 -29 85 -56 90 -61 6 -4 54 -30 108 -57 159 -80 218
-69 249 50 13 52 18 397 6 484 -11 77 -66 104 -153 74z"/>
<path d="M4684 9996 c-23 -17 -29 -73 -29 -296 0 -274 12 -337 71 -365 28 -13
37 -13 84 1 28 8 68 24 88 36 58 31 206 122 212 129 3 3 25 19 50 36 59 41
118 103 121 128 5 44 -31 92 -98 131 -18 10 -33 21 -33 24 0 4 -16 12 -35 20
-19 8 -35 17 -35 21 0 4 -11 10 -24 13 -14 3 -31 12 -38 19 -15 15 -160 83
-209 98 -51 16 -106 18 -125 5z"/>
<path d="M7044 9995 c-21 -7 -66 -27 -99 -45 -73 -40 -228 -132 -235 -140 -3
-3 -23 -18 -45 -35 -79 -58 -99 -98 -69 -137 24 -33 207 -174 232 -179 4 -1
25 -13 47 -27 63 -40 179 -92 218 -99 54 -8 83 14 92 74 5 26 10 55 11 63 2 8
6 49 10 90 3 41 8 91 10 110 8 81 6 218 -5 258 -19 69 -79 93 -167 67z"/>
<path d="M7836 10003 c-62 -16 -74 -69 -70 -325 6 -405 43 -425 394 -218 41
25 77 48 78 52 2 5 9 8 16 8 31 0 144 108 155 148 9 31 -4 63 -39 89 -64 49
-364 208 -453 239 -41 14 -49 15 -81 7z"/>
<path d="M10825 9998 c-11 -6 -21 -12 -23 -13 -19 -15 -22 -525 -3 -593 15
-52 58 -77 109 -63 40 12 232 111 256 134 11 9 24 17 28 17 5 0 14 5 21 10 7
6 39 28 72 50 85 56 135 107 135 137 0 24 -39 69 -95 113 -76 59 -320 185
-400 206 -60 17 -74 17 -100 2z"/>
<path d="M855 9976 c-186 -68 -411 -210 -433 -274 -12 -35 -2 -60 38 -101 90
-89 387 -256 479 -268 52 -7 81 25 72 80 0 4 2 7 6 7 7 0 9 311 3 460 -3 68
-16 109 -34 111 -52 7 -79 4 -131 -15z"/>
<path d="M10075 9990 c-16 -4 -56 -19 -87 -33 -32 -14 -58 -23 -58 -20 0 3 -6
1 -12 -5 -7 -5 -40 -24 -73 -42 -88 -46 -207 -128 -228 -156 -10 -13 -20 -33
-22 -44 -4 -20 37 -89 61 -103 7 -4 19 -13 26 -20 32 -31 242 -160 298 -183 8
-4 33 -15 55 -25 59 -27 112 -33 139 -16 12 9 23 21 24 29 2 7 4 128 5 268 3
240 -2 323 -23 344 -12 12 -69 15 -105 6z"/>
<path d="M175 9162 c-4 -4 -11 -8 -16 -8 -5 -1 -13 -2 -18 -3 -16 -2 -39 -65
-39 -106 0 -22 -1 -44 -2 -50 -5 -27 8 -344 15 -395 21 -135 38 -164 96 -162
62 2 357 171 507 291 43 35 52 47 52 74 0 46 -57 103 -172 172 -163 98 -300
167 -358 181 -54 12 -58 12 -65 6z"/>
<path d="M3231 9152 c-46 -22 -54 -56 -55 -225 -1 -322 19 -454 73 -482 24
-12 33 -12 71 1 98 34 380 198 450 261 14 13 28 23 31 23 4 0 16 19 27 41 19
38 20 45 7 70 -8 15 -34 43 -57 62 -44 35 -136 97 -143 97 -3 0 -26 13 -52 29
-107 64 -215 115 -265 127 -5 1 -9 2 -10 4 -11 8 -53 4 -77 -8z"/>
<path d="M5528 9164 c-2 -1 -16 -5 -31 -8 -14 -2 -31 -7 -37 -11 -5 -3 -18 -8
-27 -10 -30 -6 -91 -34 -98 -45 -3 -5 -15 -10 -26 -10 -10 0 -19 -5 -19 -11 0
-5 -4 -7 -10 -4 -5 3 -10 2 -10 -3 0 -4 -17 -16 -37 -26 -57 -27 -204 -125
-224 -149 -31 -37 -40 -83 -23 -122 18 -43 82 -91 249 -188 241 -139 281 -158
308 -148 23 9 76 64 78 82 2 13 6 29 9 32 13 15 18 395 6 506 -7 72 -14 89
-38 102 -20 11 -65 19 -70 13z"/>
<path d="M6401 9162 c-80 -12 -102 -78 -102 -317 0 -195 13 -301 46 -366 17
-31 86 -70 92 -51 3 6 11 12 18 12 16 0 296 156 379 211 32 21 60 39 61 39 2
0 20 16 41 35 20 19 33 35 28 35 -5 0 -3 4 5 9 21 13 16 55 -10 90 -23 31
-118 100 -214 157 -27 16 -59 34 -70 41 -102 61 -232 111 -274 105z"/>
<path d="M8649 9166 c-2 -3 -18 -7 -34 -10 -52 -9 -241 -110 -383 -204 -131
-87 -167 -142 -124 -189 17 -20 138 -113 147 -113 2 0 42 -24 88 -52 117 -75
114 -73 202 -121 105 -58 119 -62 153 -42 40 24 69 72 80 133 12 70 12 398 0
459 -5 26 -10 54 -11 62 -1 23 -66 81 -91 81 -12 0 -25 -2 -27 -4z"/>
<path d="M9320 9151 c-13 -11 -20 -36 -24 -86 -7 -77 -8 -448 -2 -480 2 -11 7
-41 10 -67 9 -61 40 -88 94 -82 36 4 231 97 243 116 3 5 8 9 10 8 8 -4 59 24
59 32 0 4 6 8 14 8 20 0 169 110 201 148 42 50 40 77 -6 123 -22 22 -68 58
-102 79 -34 22 -67 44 -74 50 -7 5 -15 10 -18 10 -3 0 -22 11 -43 23 -53 34
-199 108 -219 112 -10 2 -19 4 -20 5 -2 2 -7 4 -13 5 -5 1 -11 4 -12 5 -12 10
-83 4 -98 -9z"/>
<path d="M2410 9137 c-71 -25 -214 -99 -244 -125 -10 -10 -21 -16 -25 -16 -13
3 -147 -91 -170 -119 -28 -34 -30 -86 -6 -123 23 -36 113 -103 233 -174 221
-132 296 -162 332 -131 40 32 48 100 46 395 -1 245 -3 277 -18 292 -26 26 -76
26 -148 1z"/>
<path d="M11598 9153 c-16 -2 -28 -8 -28 -12 0 -4 -6 -8 -12 -9 -16 -1 -79
-24 -97 -36 -8 -5 -42 -24 -76 -42 -35 -17 -75 -40 -90 -50 -15 -10 -40 -25
-56 -33 -56 -31 -137 -95 -153 -121 -8 -15 -14 -37 -11 -49 5 -25 42 -81 55
-81 4 0 18 -11 31 -25 13 -13 27 -25 31 -25 4 0 34 -17 65 -37 32 -21 67 -43
78 -49 285 -162 314 -173 354 -130 33 35 42 113 42 379 0 231 -8 316 -29 317
-4 1 -23 2 -42 4 -19 2 -47 1 -62 -1z"/>
<path d="M971 8357 c-6 -6 -11 -8 -11 -4 0 13 -191 -68 -198 -85 -2 -4 -12 -8
-22 -8 -10 0 -20 -3 -22 -7 -1 -5 -37 -26 -78 -47 -169 -88 -291 -166 -342
-219 -33 -34 -37 -44 -34 -82 4 -56 23 -75 176 -174 69 -45 130 -86 137 -91 7
-6 15 -10 18 -10 3 0 24 -12 48 -27 23 -15 65 -40 92 -55 179 -100 241 -121
286 -97 23 12 58 46 60 58 0 3 2 15 4 26 12 59 24 198 30 333 2 51 7 98 11
104 4 7 3 8 -4 4 -9 -5 -10 -1 -4 16 11 29 8 200 -3 218 -5 8 -4 11 2 7 18
-11 -13 84 -38 115 -18 23 -34 31 -61 33 -20 2 -41 -2 -47 -8z"/>
<path d="M3925 8344 c-138 -71 -239 -126 -405 -221 -143 -81 -230 -152 -230
-185 0 -33 27 -84 61 -117 41 -39 203 -151 218 -151 6 0 11 -4 11 -10 0 -5 7
-10 15 -10 8 0 15 -4 15 -10 0 -5 4 -10 10 -10 5 0 33 -14 62 -31 29 -18 78
-45 108 -62 30 -16 66 -37 80 -45 52 -33 116 -62 137 -62 23 0 122 91 124 113
0 6 3 23 6 37 9 35 8 432 0 561 -8 131 -23 177 -67 207 -43 29 -83 28 -145 -4z"/>
<path d="M4640 8347 c-51 -26 -67 -56 -76 -138 -9 -83 -11 -483 -3 -531 4 -21
2 -38 -3 -38 -5 0 -6 -6 -2 -12 5 -7 9 -29 11 -48 5 -60 41 -112 104 -145 24
-13 32 -11 105 27 220 112 543 320 587 376 36 47 37 114 3 153 -44 50 -157
121 -376 235 -30 16 -57 31 -60 34 -9 10 -185 90 -217 99 -24 7 -40 4 -73 -12z"/>
<path d="M7176 8354 c-27 -7 -97 -36 -155 -65 -58 -29 -109 -52 -113 -51 -5 1
-8 -2 -8 -8 0 -5 -4 -10 -9 -10 -25 0 -330 -184 -363 -220 -56 -58 -51 -115
13 -178 38 -37 203 -152 219 -152 5 0 10 -5 10 -12 0 -6 3 -9 6 -5 3 3 11 2
18 -4 15 -13 71 -49 131 -84 28 -16 59 -35 70 -42 71 -43 176 -87 212 -89 36
-2 46 2 62 24 28 40 36 72 46 177 13 143 22 453 16 615 -2 87 -64 128 -155
104z"/>
<path d="M7805 8358 c-50 -17 -80 -51 -92 -101 -2 -12 -7 -89 -9 -172 -2 -82
-6 -155 -8 -161 -3 -7 -2 -15 1 -18 6 -6 8 -79 3 -101 -1 -5 -2 -12 0 -15 1
-3 3 -45 5 -95 4 -80 9 -125 15 -132 3 -3 7 -18 9 -30 2 -13 44 -58 71 -76 13
-9 38 -17 55 -17 27 0 144 53 235 107 176 103 361 229 410 277 51 51 55 57 58
98 3 28 -2 41 -20 57 -71 61 -84 71 -91 71 -5 0 -23 11 -41 25 -18 14 -36 25
-40 25 -4 0 -19 9 -34 19 -40 28 -216 129 -222 128 -3 -1 -18 7 -35 19 -52 36
-196 104 -218 103 -12 0 -35 -5 -52 -11z"/>
<path d="M10083 8341 c-29 -16 -53 -26 -53 -23 0 4 -4 2 -8 -3 -4 -6 -36 -26
-72 -44 -36 -19 -81 -43 -100 -54 -19 -11 -53 -30 -75 -41 -38 -21 -58 -33
-122 -73 -16 -10 -31 -16 -35 -15 -5 1 -8 -2 -8 -8 0 -5 -15 -16 -33 -25 -18
-8 -53 -33 -77 -54 -43 -37 -43 -38 -37 -89 5 -43 12 -57 41 -82 44 -39 162
-119 296 -202 181 -111 302 -178 356 -194 l43 -13 40 44 c39 42 58 89 66 163
10 83 2 511 -10 587 -4 22 -7 48 -6 58 0 10 -18 36 -40 58 -49 49 -90 52 -166
10z"/>
<path d="M1581 8339 c-53 -32 -61 -62 -61 -244 0 -128 10 -321 25 -495 12
-134 56 -175 161 -150 30 7 54 17 54 22 0 4 9 8 20 8 11 0 20 5 20 10 0 6 5
10 11 10 6 0 49 23 96 50 47 28 89 50 94 50 5 0 9 3 9 8 0 4 17 16 37 27 56
30 198 127 250 171 51 45 84 101 81 139 -2 17 -16 38 -38 56 -50 42 -50 42
-100 69 -25 14 -47 27 -50 30 -11 11 -283 155 -290 153 -3 0 -17 8 -32 18 -14
10 -30 19 -35 19 -5 0 -32 11 -59 24 -53 25 -117 44 -147 43 -9 0 -30 -8 -46
-18z"/>
<path d="M10743 8348 c-44 -21 -48 -52 -48 -398 0 -320 5 -413 26 -451 5 -11
28 -33 50 -49 36 -26 43 -27 72 -18 40 14 136 66 160 86 9 8 17 12 17 9 0 -4
28 10 63 31 34 21 69 41 77 45 8 4 50 29 93 57 43 27 83 50 88 50 5 0 9 5 9
10 0 6 7 10 15 10 8 0 15 4 15 8 0 4 12 15 28 24 65 39 116 102 117 147 2 61
-44 115 -150 176 -27 16 -53 34 -57 40 -4 5 -8 7 -8 2 0 -4 -17 3 -37 16 -42
26 -215 121 -223 122 -3 1 -45 21 -95 44 -94 45 -169 59 -212 39z"/>
<path d="M2455 7499 c-133 -67 -403 -216 -415 -229 -3 -3 -15 -11 -27 -17 -13
-7 -33 -19 -45 -25 -13 -7 -25 -15 -28 -19 -3 -3 -21 -17 -41 -32 -60 -45 -67
-120 -17 -178 25 -28 153 -129 164 -129 4 0 22 -11 40 -25 18 -14 35 -25 37
-25 2 0 46 -26 98 -57 52 -31 119 -70 149 -86 30 -16 63 -37 73 -45 9 -8 17
-12 17 -7 0 4 6 3 13 -3 6 -5 30 -13 52 -16 34 -6 47 -3 80 20 44 29 67 58 74
89 10 52 -1 625 -14 683 -3 12 -7 30 -9 41 -8 33 -29 59 -63 75 -47 22 -69 20
-138 -15z"/>
<path d="M9245 7507 c-73 -41 -79 -73 -79 -452 0 -289 6 -355 31 -390 39 -52
125 -76 171 -48 12 7 22 11 22 8 0 -4 140 75 200 113 14 9 27 17 30 17 3 0 16
8 30 17 14 9 63 40 110 68 137 85 222 158 241 206 22 59 -37 136 -159 208 -30
17 -66 39 -80 48 -15 9 -43 25 -62 35 -19 10 -77 41 -128 70 -52 29 -100 53
-108 53 -8 0 -14 4 -14 9 0 10 -103 52 -140 57 -14 2 -43 -7 -65 -19z"/>
<path d="M3122 7509 c-42 -16 -84 -68 -102 -127 -14 -46 -17 -85 -14 -202 3
-134 5 -175 19 -300 2 -25 7 -71 11 -103 3 -32 10 -72 15 -89 4 -17 6 -34 4
-38 -2 -4 8 -18 23 -32 22 -21 36 -26 72 -24 58 3 75 9 146 42 60 28 195 103
204 113 3 3 21 15 40 25 80 44 238 153 277 191 76 75 68 126 -30 197 -55 39
-140 95 -188 123 -10 6 -44 25 -76 44 -135 80 -305 167 -352 181 -14 4 -37 3
-49 -1z"/>
<path d="M5558 7515 c-2 -2 -15 -6 -30 -9 -38 -7 -173 -73 -318 -157 -69 -39
-138 -79 -155 -87 -16 -9 -36 -21 -42 -28 -7 -7 -29 -22 -50 -35 -101 -62
-144 -134 -118 -195 15 -35 80 -93 138 -123 15 -8 27 -18 27 -23 0 -4 4 -8 10
-8 5 0 38 -17 72 -38 35 -21 70 -41 78 -45 8 -4 31 -17 50 -29 136 -83 279
-150 328 -152 15 -1 39 4 53 11 24 11 31 23 54 88 13 36 19 146 19 380 0 304
-9 388 -48 423 -20 18 -61 34 -68 27z"/>
<path d="M6243 7500 c-55 -33 -67 -115 -67 -455 0 -183 4 -260 19 -370 17
-127 162 -105 448 66 26 16 50 29 53 29 3 0 32 18 64 40 32 22 62 40 65 40 17
0 184 140 167 140 -4 0 0 5 8 10 20 13 17 80 -6 114 -14 22 -232 176 -248 176
-3 0 -46 24 -98 54 -129 74 -269 146 -284 146 -7 0 -14 4 -16 9 -7 20 -73 21
-105 1z"/>
<path d="M8680 7507 c-14 -5 -41 -16 -60 -24 -39 -16 -42 -17 -121 -61 -31
-17 -59 -28 -63 -25 -3 4 -6 2 -6 -4 0 -5 -22 -20 -50 -33 -27 -13 -50 -27
-50 -31 0 -4 -10 -11 -22 -15 -22 -7 -91 -49 -192 -117 -148 -99 -167 -162
-74 -243 24 -20 236 -164 242 -164 2 0 33 -17 67 -38 218 -132 302 -169 370
-163 25 2 66 43 74 76 5 17 9 32 10 35 1 3 5 32 9 65 5 33 10 69 12 80 8 44
17 218 18 355 1 145 -7 212 -25 218 -5 2 -9 9 -9 16 0 7 -16 27 -35 46 -19 19
-35 31 -35 27 0 -4 -8 -4 -17 1 -11 6 -28 6 -43 -1z"/>
<path d="M11665 7507 c-11 -7 -23 -16 -27 -22 -4 -5 -8 -7 -8 -2 0 7 -105 -46
-156 -79 -13 -9 -24 -12 -24 -8 0 5 -4 4 -8 -2 -9 -13 -121 -79 -151 -89 -11
-3 -21 -11 -21 -16 0 -5 -5 -9 -11 -9 -9 0 -130 -68 -164 -92 -61 -43 -87 -76
-91 -115 -5 -56 9 -91 54 -130 35 -31 271 -178 372 -232 25 -13 47 -27 50 -30
7 -9 141 -72 165 -78 81 -19 93 -19 126 -2 19 10 31 18 26 19 -4 0 -1 10 7 23
26 41 36 159 36 427 1 235 -6 344 -24 379 -24 45 -114 79 -151 58z"/>
<path d="M108 7503 c-41 -6 -74 -46 -85 -104 -11 -54 -10 -620 1 -679 15 -77
48 -128 85 -131 38 -4 91 3 91 11 0 4 6 7 13 7 26 0 208 97 408 219 49 30 94
54 99 54 4 0 10 3 12 8 2 4 22 22 46 41 51 40 72 77 72 126 0 34 -26 95 -40
95 -4 0 -16 9 -28 20 -12 12 -22 18 -22 15 0 -2 -12 5 -26 18 -14 12 -29 22
-32 22 -4 0 -18 8 -32 17 -64 41 -255 146 -359 198 -117 58 -153 69 -203 63z"/>
<path d="M10776 6755 c-26 -13 -56 -32 -66 -42 -16 -18 -21 -33 -35 -103 -21
-102 -26 -849 -7 -916 14 -48 39 -73 90 -91 44 -15 88 -9 161 19 73 29 255
123 379 197 29 17 57 31 62 31 6 0 10 5 10 10 0 6 6 10 13 10 7 0 44 20 81 45
38 25 71 45 73 45 4 0 62 40 79 55 6 6 26 21 44 35 18 14 42 44 52 67 42 95
-4 151 -255 315 -45 29 -83 56 -85 61 -2 4 -8 7 -13 7 -5 0 -40 19 -77 41 -37
23 -78 49 -92 57 -14 9 -26 14 -26 11 -1 -2 -10 3 -20 13 -23 20 -224 122
-280 142 -38 13 -44 12 -88 -9z"/>
<path d="M909 6732 c-46 -20 -107 -51 -136 -69 -29 -18 -54 -33 -57 -33 -9 0
-211 -125 -214 -132 -2 -5 -8 -8 -13 -8 -11 0 -123 -72 -127 -82 -2 -5 -10 -8
-17 -8 -7 0 -15 -3 -17 -7 -1 -5 -23 -21 -47 -38 -68 -46 -138 -119 -151 -159
-15 -45 7 -95 64 -148 39 -35 218 -151 300 -194 95 -49 252 -139 258 -148 4
-6 8 -8 8 -3 0 4 33 -10 73 -31 134 -71 213 -91 269 -68 55 23 77 55 86 126
10 68 8 695 -2 770 -20 154 -18 145 -39 190 -39 88 -105 99 -238 42z"/>
<path d="M1600 6723 c-77 -38 -102 -88 -114 -223 -11 -122 -20 -367 -21 -570
0 -256 7 -293 69 -346 38 -33 45 -35 91 -31 28 3 76 17 107 31 99 44 298 144
313 156 8 7 15 9 15 5 0 -4 6 -3 13 2 11 9 52 32 202 113 125 67 240 153 263
197 16 30 15 78 -2 112 -14 27 -68 78 -117 113 -13 9 -66 46 -117 82 -51 36
-96 66 -101 66 -4 0 -16 7 -26 15 -57 44 -327 206 -429 258 -75 37 -102 41
-146 20z"/>
<path d="M4018 6724 c-20 -7 -60 -26 -89 -42 -30 -16 -99 -53 -154 -82 -259
-137 -267 -141 -277 -155 -4 -5 -8 -6 -8 -1 0 5 -8 2 -17 -6 -10 -8 -45 -30
-78 -48 -33 -19 -62 -37 -65 -40 -3 -4 -15 -13 -28 -19 -32 -17 -57 -38 -108
-89 -85 -85 -68 -161 56 -255 30 -23 61 -48 68 -54 7 -7 17 -13 22 -13 5 0 15
-6 22 -12 15 -14 20 -17 133 -85 43 -26 100 -60 125 -76 25 -15 52 -30 60 -34
8 -4 17 -9 20 -12 6 -7 9 -8 143 -80 53 -28 97 -49 97 -46 0 3 10 0 23 -7 46
-26 113 -36 148 -21 57 24 75 58 84 164 4 41 9 94 11 119 2 25 7 198 9 386 4
270 2 349 -8 386 -13 43 -47 88 -65 88 -5 0 -17 9 -26 19 -23 25 -55 30 -98
15z"/>
<path d="M7760 6722 c-54 -26 -116 -94 -123 -133 -3 -19 -4 -178 -1 -354 8
-565 19 -647 92 -680 12 -5 22 -12 22 -15 0 -19 135 16 198 51 17 10 32 16 32
12 0 -3 8 0 18 8 9 8 36 24 59 35 24 10 43 22 43 27 0 4 5 7 11 7 34 0 468
282 530 343 46 46 80 111 72 136 -10 34 -29 67 -45 81 -31 28 -58 50 -62 50
-2 0 -31 18 -64 40 -33 22 -64 40 -70 40 -6 0 -12 3 -14 8 -3 8 -84 62 -93 62
-3 0 -31 16 -61 35 -30 19 -59 35 -64 35 -6 0 -10 5 -10 10 0 6 -4 10 -9 10
-5 0 -60 29 -122 63 -140 78 -277 147 -293 147 -6 0 -27 -8 -46 -18z"/>
<path d="M10104 6699 c-44 -22 -86 -44 -94 -49 -8 -5 -78 -46 -155 -92 -77
-45 -141 -86 -143 -90 -2 -4 -10 -8 -18 -8 -8 0 -14 -4 -14 -10 0 -5 -6 -10
-13 -10 -7 0 -41 -20 -75 -45 -34 -25 -62 -43 -62 -39 0 3 -7 -2 -17 -11 -9
-9 -32 -27 -52 -39 -93 -59 -167 -159 -156 -211 2 -11 4 -23 4 -27 4 -33 139
-139 261 -204 30 -16 58 -33 62 -39 4 -5 8 -6 8 -1 0 5 8 2 18 -6 26 -22 413
-216 490 -244 84 -32 109 -33 155 -3 45 28 72 82 81 159 11 87 7 326 -9 635
-13 247 -27 296 -96 342 -59 39 -86 38 -175 -8z"/>
<path d="M4570 6720 c-56 -16 -66 -22 -87 -54 -18 -28 -36 -99 -43 -166 -4
-48 -6 -707 -2 -714 3 -5 7 -29 9 -54 4 -54 23 -96 66 -143 49 -53 87 -69 126
-53 17 7 31 10 31 7 0 -3 6 -1 13 5 6 6 41 26 77 44 93 50 147 81 304 175 76
45 142 83 147 83 5 0 9 4 9 8 0 5 12 15 28 23 78 40 250 168 258 192 13 37 6
118 -12 146 -10 14 -29 36 -43 49 -25 22 -161 109 -231 148 -19 10 -37 21 -40
24 -3 3 -21 13 -40 22 -19 10 -73 38 -120 64 -47 26 -112 61 -145 79 -33 17
-69 36 -80 42 -87 46 -180 85 -195 82 -3 -1 -16 -5 -30 -9z"/>
<path d="M7195 6700 c-52 -17 -352 -161 -380 -183 -17 -14 -209 -117 -217
-117 -4 0 -8 -5 -8 -12 0 -6 -3 -9 -6 -6 -8 8 -179 -106 -207 -138 -49 -56
-51 -165 -5 -206 40 -35 313 -212 443 -288 17 -9 57 -33 90 -52 159 -93 289
-161 323 -170 24 -7 83 28 114 66 10 11 22 26 26 32 33 39 43 92 48 248 2 65
5 121 8 123 2 3 0 18 -4 34 -5 16 -5 29 0 29 4 0 4 16 0 34 -4 19 -5 38 -2 41
3 3 5 24 4 48 -1 23 -3 103 -5 177 -3 74 -5 135 -6 135 -1 0 -4 16 -6 35 -8
73 -15 101 -31 129 -34 58 -86 69 -179 41z"/>
<path d="M5580 5823 c-47 -12 -121 -46 -280 -128 -19 -10 -70 -40 -112 -67
-43 -26 -80 -48 -83 -48 -3 0 -32 -18 -64 -40 -32 -22 -64 -40 -70 -40 -6 0
-11 -4 -11 -9 0 -5 -9 -13 -20 -16 -11 -3 -26 -12 -32 -18 -7 -7 -31 -25 -53
-41 -99 -72 -145 -130 -145 -184 0 -38 26 -89 53 -104 12 -6 24 -14 27 -17 15
-18 203 -135 270 -168 19 -9 37 -20 40 -24 3 -4 17 -13 30 -19 14 -6 52 -26
85 -45 33 -19 112 -61 175 -92 63 -32 117 -60 120 -63 12 -12 131 -49 147 -45
41 8 73 25 87 47 27 42 44 129 50 249 1 36 6 71 11 79 6 9 4 11 -5 5 -9 -6
-11 -4 -5 5 9 15 11 132 2 147 -4 6 -3 13 0 17 10 9 2 318 -11 431 -19 166
-79 221 -206 188z"/>
<path d="M9234 5828 c-3 -4 -9 -6 -14 -3 -16 10 -69 -51 -80 -92 -20 -79 -31
-262 -34 -578 -2 -233 5 -319 30 -400 30 -96 101 -124 202 -78 20 9 39 17 42
18 41 13 513 266 530 285 3 3 21 14 40 24 85 47 201 129 221 157 24 35 28 94
7 131 -35 63 -155 152 -408 304 -188 114 -364 205 -430 223 -61 17 -99 20
-106 9z"/>
<path d="M11598 5816 c-73 -25 -258 -122 -356 -187 -24 -16 -45 -29 -49 -29
-3 0 -25 -13 -50 -30 -24 -16 -46 -30 -48 -30 -3 0 -46 -28 -97 -62 -83 -57
-172 -134 -207 -180 -32 -43 -18 -135 24 -158 14 -7 25 -17 25 -22 0 -4 6 -8
14 -8 8 0 16 -4 18 -8 6 -16 218 -150 373 -237 124 -69 169 -93 256 -137 149
-74 169 -80 229 -62 27 8 60 25 73 37 45 42 48 68 42 431 -5 365 -8 434 -25
526 -29 161 -86 201 -222 156z"/>
<path d="M114 5820 c-25 -10 -71 -67 -72 -90 -1 -8 -6 -40 -12 -70 -15 -82
-20 -175 -25 -495 -4 -300 2 -372 38 -441 37 -72 116 -87 213 -40 77 36 71 33
204 104 63 33 135 71 160 84 25 12 47 25 50 28 3 3 52 32 110 65 58 32 142 82
186 112 78 51 83 55 94 104 19 79 7 133 -37 176 -34 32 -164 121 -268 183 -22
13 -41 28 -43 32 -2 4 -8 8 -14 8 -8 0 -132 71 -228 130 -43 26 -204 102 -221
103 -10 1 -19 5 -19 9 0 11 -89 9 -116 -2z"/>
<path d="M2514 5818 c-3 -5 -9 -6 -13 -4 -13 9 -246 -114 -436 -229 -99 -60
-182 -111 -185 -114 -3 -3 -25 -20 -49 -36 -65 -44 -140 -114 -156 -145 -8
-16 -16 -41 -17 -57 -2 -36 32 -94 67 -113 14 -7 25 -17 25 -22 0 -4 7 -8 15
-8 8 0 15 -4 15 -10 0 -5 4 -10 9 -10 8 0 155 -87 221 -130 8 -6 24 -14 35
-20 11 -5 47 -25 80 -44 197 -114 427 -226 453 -221 37 7 69 24 98 51 68 63
73 98 74 479 0 445 -20 580 -94 626 -32 20 -131 25 -142 7z"/>
<path d="M3108 5802 c-35 -30 -57 -70 -60 -111 -1 -17 -6 -31 -10 -31 -5 0 -4
-8 1 -19 6 -10 8 -21 4 -25 -9 -9 -12 -101 -12 -451 -1 -346 2 -392 23 -433
26 -49 56 -66 116 -66 30 0 66 3 80 7 26 7 271 127 280 136 3 3 21 14 40 25
45 23 120 65 190 105 30 18 63 35 73 38 9 3 17 9 17 14 0 5 5 9 11 9 12 0 133
80 137 92 2 4 8 8 13 8 11 0 54 43 76 76 7 12 15 38 17 58 5 44 -27 92 -100
152 -61 51 -200 144 -214 144 -5 0 -10 5 -10 10 0 6 -5 10 -11 10 -6 0 -30 14
-54 30 -24 17 -46 30 -50 30 -3 0 -22 11 -43 23 -93 59 -282 157 -301 157 -6
0 -11 4 -11 8 0 12 -99 33 -140 30 -19 -1 -47 -13 -62 -26z"/>
<path d="M6143 5810 c-18 -11 -33 -24 -33 -29 0 -5 -7 -16 -15 -24 -8 -8 -17
-28 -20 -43 -2 -16 -8 -40 -11 -54 -8 -30 -14 -741 -6 -754 3 -5 7 -28 9 -50
2 -23 5 -48 7 -56 2 -8 7 -30 11 -47 4 -18 11 -33 15 -33 4 0 10 -9 13 -20 3
-11 18 -25 34 -31 65 -25 86 -19 253 62 89 43 175 88 191 99 16 12 29 18 29
14 0 -3 7 -1 15 6 8 6 29 19 47 29 61 32 303 174 308 180 3 4 26 20 52 36 27
17 48 33 48 38 0 4 6 7 13 7 12 0 41 65 42 95 2 28 -42 94 -89 134 -10 9 -23
21 -30 26 -24 22 -197 135 -206 135 -6 0 -10 5 -10 10 0 6 -4 10 -8 10 -5 0
-61 32 -126 70 -235 141 -389 210 -465 210 -20 0 -51 -9 -68 -20z"/>
<path d="M8569 5812 c-83 -34 -234 -112 -299 -153 -14 -9 -45 -28 -70 -43
-294 -177 -390 -247 -430 -312 -24 -38 -28 -81 -11 -114 15 -29 86 -100 100
-100 5 0 11 -4 13 -8 4 -11 127 -92 139 -92 5 0 9 -4 9 -9 0 -5 8 -11 18 -14
15 -5 52 -25 162 -88 14 -8 27 -16 30 -19 9 -8 97 -55 238 -126 116 -58 141
-67 198 -70 36 -2 64 1 64 6 0 6 3 9 8 8 18 -5 51 25 61 54 17 52 20 131 20
478 1 308 -3 439 -13 495 -18 99 -132 151 -237 107z"/>
<path d="M1039 4975 c-25 -8 -115 -50 -200 -93 -144 -74 -184 -95 -284 -152
-22 -13 -60 -33 -84 -46 -24 -13 -49 -28 -55 -33 -6 -4 -40 -23 -76 -42 -36
-18 -67 -36 -70 -39 -3 -3 -17 -11 -32 -19 -27 -14 -27 -14 -24 -111 2 -53 9
-106 15 -118 16 -30 105 -96 251 -187 69 -42 136 -84 150 -93 14 -9 27 -17 30
-17 3 0 24 -13 47 -28 106 -68 298 -164 354 -176 68 -15 122 6 149 59 10 19
18 38 19 43 1 4 1 8 2 10 19 61 40 334 43 539 0 54 5 98 9 98 4 0 3 9 -3 20
-8 14 -8 20 0 20 7 0 8 6 1 18 -6 11 -6 24 0 34 6 10 6 19 0 23 -7 4 -7 15 -1
30 5 14 6 25 2 25 -4 0 -7 19 -8 43 -1 72 -23 143 -54 174 -24 25 -37 30 -82
31 -29 0 -74 -5 -99 -13z"/>
<path d="M1500 4968 c-76 -51 -84 -104 -84 -528 0 -348 8 -462 36 -514 6 -12
11 -23 11 -26 -2 -22 21 -51 54 -68 77 -41 196 6 558 222 94 55 174 103 180
105 5 2 14 8 20 13 5 4 35 25 66 46 105 70 145 112 154 160 3 19 6 37 7 40 1
4 -2 21 -6 37 -8 36 -36 69 -91 110 -22 16 -42 32 -45 35 -3 3 -16 11 -30 18
-14 7 -43 23 -65 37 -22 14 -49 30 -60 35 -11 6 -27 14 -35 20 -85 57 -475
256 -520 266 -79 18 -115 16 -150 -8z"/>
<path d="M10198 4974 c-21 -7 -38 -11 -38 -9 0 8 -281 -139 -428 -224 -315
-181 -369 -226 -379 -319 -7 -71 28 -112 184 -215 70 -46 144 -93 163 -103 19
-10 40 -23 46 -29 6 -5 28 -19 50 -30 21 -11 41 -22 44 -25 27 -27 311 -178
350 -185 8 -2 15 -4 15 -5 0 -5 45 -11 78 -11 63 1 105 43 123 124 1 4 2 8 4
10 9 11 21 120 25 234 2 56 6 106 9 112 3 5 0 12 -6 14 -10 4 -10 6 0 6 10 1
10 6 2 21 -8 14 -8 26 0 40 7 14 8 26 0 39 -7 14 -7 22 0 26 7 4 7 11 2 18 -5
7 -6 21 -2 32 4 11 4 29 0 40 -10 27 -10 30 0 65 5 16 6 30 2 30 -4 0 -7 33
-8 72 -1 166 -11 205 -64 251 -38 34 -112 43 -172 21z"/>
<path d="M10663 4973 c-18 -9 -35 -25 -39 -35 -3 -10 -9 -18 -13 -18 -5 0 -12
-15 -16 -32 -4 -18 -9 -40 -12 -48 -7 -26 -13 -132 -13 -250 1 -108 7 -315 10
-315 1 0 4 -31 6 -70 5 -88 12 -160 14 -160 1 0 3 -15 5 -34 5 -49 14 -79 36
-129 23 -50 66 -74 120 -66 47 7 159 46 159 56 0 4 6 8 14 8 8 0 52 22 98 48
46 27 94 55 108 63 14 8 35 23 48 34 13 11 24 18 25 16 1 -3 22 8 47 24 131
82 241 154 287 188 51 38 101 102 89 114 -3 3 -1 14 5 24 5 11 6 19 2 19 -10
0 -7 75 2 90 3 6 1 10 -5 10 -6 0 -8 5 -5 11 8 12 -15 32 -65 56 -19 9 -37 19
-40 22 -3 4 -18 13 -35 22 -102 55 -151 83 -160 89 -5 4 -41 24 -78 44 -37 20
-84 46 -103 57 -99 55 -276 140 -331 158 -74 25 -116 26 -160 4z"/>
<path d="M4085 4952 c-22 -9 -43 -21 -47 -26 -4 -6 -8 -8 -8 -4 0 9 -292 -141
-301 -154 -3 -6 -10 -10 -15 -10 -5 0 -76 -38 -157 -84 -82 -46 -152 -84 -157
-84 -5 0 -10 -4 -12 -8 -1 -4 -24 -20 -50 -35 -56 -33 -91 -64 -102 -92 -15
-37 -18 -104 -6 -142 11 -35 65 -103 81 -103 4 0 43 -25 88 -55 45 -30 83 -55
85 -55 3 0 41 -23 87 -51 45 -28 103 -63 128 -77 25 -14 55 -30 65 -36 11 -6
25 -15 30 -19 17 -13 143 -83 232 -128 79 -39 82 -40 115 -26 45 20 96 66 108
98 18 50 27 125 35 314 3 55 8 163 11 240 11 217 11 346 1 390 -15 69 -61 118
-136 148 -30 12 -40 12 -75 -1z"/>
<path d="M7108 4882 c-395 -203 -631 -342 -697 -412 -27 -29 -48 -70 -45 -87
1 -7 2 -23 3 -35 3 -57 136 -160 451 -350 208 -126 259 -155 364 -209 93 -48
99 -47 182 36 63 62 69 75 79 185 8 89 4 805 -5 805 -1 0 -4 14 -6 30 -6 38
-76 100 -124 109 -3 1 -10 5 -17 9 -7 5 -82 -28 -185 -81z"/>
<path d="M7668 4948 c-65 -39 -100 -81 -115 -138 -11 -40 5 -601 22 -780 17
-175 26 -195 117 -255 42 -28 55 -27 134 13 51 26 351 195 426 241 14 9 48 29
75 45 197 119 262 168 283 211 12 24 22 62 23 83 2 45 -39 142 -60 142 -7 0
-13 5 -13 10 0 6 -7 10 -15 10 -8 0 -15 3 -15 8 0 4 -10 12 -23 18 -12 6 -77
43 -145 82 -172 100 -557 302 -575 302 -3 0 -18 5 -34 12 -44 17 -49 17 -85
-4z"/>
<path d="M4538 4949 c-45 -12 -94 -47 -107 -76 -18 -38 -22 -65 -25 -148 -1
-39 -5 -76 -10 -83 -4 -6 -3 -12 1 -12 10 0 10 -61 -1 -78 -4 -7 -3 -12 2 -12
8 0 6 -82 -3 -107 -2 -7 -1 -13 3 -13 4 0 7 -11 7 -25 0 -14 -3 -25 -7 -25 -4
0 -4 -10 1 -22 5 -13 5 -32 1 -44 -5 -11 -4 -27 0 -35 5 -8 4 -19 -2 -26 -6
-7 -7 -13 -2 -13 5 0 9 -48 10 -108 2 -226 17 -262 140 -349 25 -18 58 -23 72
-13 1 2 5 3 10 4 29 7 52 19 52 27 0 6 4 8 9 4 5 -3 16 2 24 10 9 8 23 15 31
15 9 0 16 5 16 10 0 6 5 10 11 10 6 0 23 8 37 19 15 10 43 27 62 37 41 23 193
116 200 124 3 3 21 14 40 24 19 11 40 24 45 28 6 5 48 34 95 65 221 147 257
191 228 276 -10 28 -88 117 -103 117 -3 0 -31 18 -63 39 -65 44 -72 49 -312
180 -228 125 -338 180 -385 191 -5 1 -19 6 -30 10 -11 4 -32 4 -47 -1z"/>
<path d="M5680 4221 c0 -4 -12 -6 -27 -5 -16 0 -37 -5 -49 -13 -11 -7 -23 -11
-26 -8 -6 6 -199 -91 -268 -133 -19 -12 -42 -25 -50 -29 -35 -15 -242 -141
-325 -197 -91 -61 -189 -152 -180 -167 3 -4 1 -10 -4 -13 -16 -10 -3 -67 24
-102 43 -56 228 -184 375 -259 19 -10 37 -21 40 -24 3 -3 23 -15 45 -26 22
-11 42 -22 45 -25 3 -3 23 -14 45 -25 22 -11 42 -23 45 -26 13 -14 220 -109
262 -119 97 -25 152 9 174 105 5 22 15 84 19 121 6 48 6 613 1 669 -5 45 -15
133 -19 155 -4 20 -37 81 -51 95 -15 14 -76 35 -76 26z"/>
<path d="M6167 4214 c-2 -3 -15 -7 -28 -9 -25 -5 -95 -75 -97 -97 0 -7 -5 -44
-10 -83 -10 -67 -10 -814 0 -845 15 -53 23 -67 41 -88 23 -24 73 -52 104 -56
20 -3 139 44 189 75 19 11 34 17 34 12 0 -4 4 -3 8 3 4 6 45 31 92 56 104 55
138 74 259 147 52 31 106 63 121 71 84 49 240 180 214 180 -4 0 -2 6 3 13 5 6
9 21 8 32 -1 11 -2 30 -3 42 -5 54 -129 145 -445 326 -280 161 -466 245 -490
221z"/>
<path d="M2938 4177 c-64 -15 -73 -35 -85 -182 -9 -106 -9 -605 0 -725 21
-290 107 -325 404 -163 156 85 259 148 463 282 215 141 262 245 153 341 -29
27 -237 160 -249 160 -3 0 -32 15 -63 34 -72 44 -400 208 -471 236 -65 25
-102 30 -152 17z"/>
<path d="M8778 4165 c-35 -12 -70 -23 -78 -26 -26 -7 -273 -135 -353 -183 -43
-25 -82 -46 -87 -46 -4 0 -13 -7 -20 -15 -6 -8 -15 -14 -18 -13 -6 2 -60 -31
-126 -74 -107 -72 -166 -141 -166 -192 0 -38 29 -87 76 -129 44 -38 196 -147
206 -147 5 0 19 -9 32 -21 13 -12 27 -21 30 -20 3 1 29 -15 56 -34 27 -19 52
-35 54 -35 2 0 49 -26 103 -59 100 -59 257 -138 297 -148 44 -13 112 -10 136
4 38 22 65 94 77 208 10 91 10 589 0 730 -4 60 -12 126 -17 146 -19 70 -94 90
-202 54z"/>
<path d="M9244 4179 c-3 -5 -9 -7 -13 -4 -17 10 -77 -42 -97 -84 -27 -55 -27
-61 -27 -396 0 -266 5 -393 18 -460 19 -103 27 -129 50 -164 44 -65 100 -80
180 -47 28 11 52 23 55 26 11 11 50 30 64 30 8 0 16 4 18 8 2 5 39 28 83 52
44 24 115 65 158 92 43 26 80 48 82 48 4 0 162 99 180 112 6 4 38 29 73 54 93
69 117 105 117 175 -1 47 -5 63 -25 84 -29 31 -194 145 -209 145 -6 0 -11 5
-11 10 0 6 -6 10 -13 10 -7 0 -19 6 -25 13 -7 6 -16 12 -20 12 -4 1 -25 12
-47 25 -23 14 -50 30 -60 37 -45 27 -335 173 -392 197 -68 28 -130 40 -139 25z"/>
<path d="M2475 4154 c-76 -26 -341 -159 -425 -212 -14 -9 -27 -17 -30 -17 -24
-3 -271 -166 -305 -202 -81 -86 -68 -167 41 -254 41 -33 229 -160 254 -172 18
-8 53 -30 60 -37 6 -6 43 -27 95 -54 22 -12 42 -24 45 -27 7 -8 126 -73 237
-130 93 -47 119 -52 175 -30 50 19 90 100 103 207 4 33 10 68 12 79 11 42 12
681 2 735 -7 39 -20 65 -42 87 -53 56 -116 64 -222 27z"/>
<path d="M3975 3342 c-33 -15 -66 -31 -73 -36 -30 -19 -179 -98 -214 -113 -21
-9 -38 -20 -38 -25 0 -4 -9 -8 -20 -8 -11 0 -20 -4 -20 -10 0 -5 -5 -10 -10
-10 -14 0 -188 -101 -285 -165 -172 -115 -209 -181 -151 -270 22 -33 73 -82
106 -102 17 -9 30 -21 30 -25 0 -4 7 -8 15 -8 8 0 15 -5 15 -11 0 -5 4 -8 9
-5 5 4 11 2 13 -2 3 -8 170 -115 248 -159 19 -11 73 -43 120 -70 162 -93 275
-142 345 -148 56 -5 104 40 120 113 7 32 9 53 20 187 19 221 27 687 14 741
-16 64 -109 154 -158 154 -14 0 -53 -13 -86 -28z"/>
<path d="M4480 3301 c-33 -34 -59 -65 -59 -69 1 -4 0 -9 -1 -12 -9 -23 -23
-205 -20 -255 2 -36 1 -109 -2 -153 -2 -24 0 -45 3 -48 4 -2 4 -18 -1 -34 -5
-17 -6 -30 -2 -30 4 0 7 -27 7 -60 0 -33 -3 -60 -6 -60 -3 0 -6 -7 -6 -15 0
-8 3 -15 6 -15 3 0 7 -55 8 -123 1 -74 7 -134 15 -153 16 -39 60 -75 115 -97
41 -16 45 -16 95 4 64 25 155 72 305 156 62 35 117 63 123 63 5 0 10 5 10 10
0 6 4 10 9 10 5 0 46 23 91 50 45 28 84 50 86 50 3 0 10 5 17 11 7 5 41 29 77
52 94 60 116 83 130 133 10 36 10 50 -1 76 -19 47 -94 116 -206 189 -54 35
-101 68 -104 72 -3 5 -9 8 -13 8 -7 -1 -43 20 -88 50 -15 11 -29 19 -32 19 -2
0 -41 23 -85 50 -44 28 -83 50 -85 50 -3 0 -24 13 -48 28 -24 16 -58 34 -75
42 -18 7 -33 15 -33 19 0 4 -10 7 -22 8 -11 1 -24 7 -27 12 -4 6 -32 13 -64
17 l-56 7 -61 -62z"/>
<path d="M7216 3348 c-39 -8 -118 -47 -124 -60 -2 -5 -8 -8 -13 -8 -5 0 -84
-45 -175 -100 -91 -55 -168 -100 -170 -100 -2 0 -26 -16 -53 -35 -26 -19 -52
-35 -56 -35 -13 0 -137 -91 -183 -134 -90 -84 -99 -164 -26 -233 30 -27 242
-160 394 -246 63 -35 133 -75 155 -87 90 -51 273 -139 298 -144 42 -7 176 71
161 95 -3 5 -1 9 4 9 5 0 9 6 10 13 17 142 15 762 -2 892 -17 130 -104 198
-220 173z"/>
<path d="M7738 3340 c-80 -36 -104 -76 -108 -185 -10 -239 7 -686 31 -837 13
-81 55 -139 104 -141 37 -1 145 23 145 34 0 4 10 9 23 13 12 3 63 27 112 54
50 27 106 58 125 68 19 11 37 22 40 25 3 4 23 16 45 28 22 12 74 44 115 71 41
27 82 53 90 57 17 8 72 45 80 54 3 3 26 20 52 37 71 48 118 97 124 127 11 61
-39 134 -139 202 -23 15 -44 31 -45 36 -2 4 -8 5 -13 1 -5 -3 -9 -1 -9 5 0 9
-20 21 -87 55 -13 6 -23 14 -23 19 0 4 -5 7 -11 7 -6 0 -37 15 -68 34 -65 39
-154 88 -226 125 -27 14 -52 28 -55 31 -3 3 -45 24 -93 48 -101 48 -155 57
-209 32z"/>
<path d="M5687 2534 c-2 -3 -17 -7 -32 -10 -24 -4 -112 -48 -190 -96 -16 -10
-37 -21 -45 -25 -35 -16 -375 -223 -490 -298 -69 -46 -135 -97 -148 -114 -49
-68 -46 -157 7 -211 17 -18 76 -59 156 -108 28 -17 55 -36 62 -42 7 -5 14 -10
17 -10 3 0 78 -42 168 -93 184 -105 395 -215 442 -229 103 -31 155 -17 204 55
42 60 49 110 46 318 -5 420 -28 719 -59 779 -19 37 -122 100 -138 84z"/>
<path d="M6093 2510 c-90 -52 -98 -93 -119 -620 -16 -401 -10 -473 47 -549 49
-66 115 -75 224 -31 30 12 60 21 64 20 2 -1 7 3 10 8 3 6 35 24 71 41 71 34
145 74 260 141 41 23 101 58 133 76 33 19 72 43 87 54 15 11 31 20 34 20 9 0
120 74 124 83 2 4 8 7 14 7 30 0 69 88 63 142 -11 80 -46 120 -191 213 -46 30
-86 55 -89 55 -3 0 -28 16 -55 35 -27 19 -52 35 -55 35 -3 0 -24 12 -48 27
-23 14 -44 26 -47 26 -3 -1 -16 7 -30 17 -24 17 -47 30 -215 122 -81 45 -181
93 -210 102 -13 3 -39 -5 -72 -24z"/>
</g>
</svg>
